<svg xmlns:xlink="http://www.w3.org/1999/xlink" id="badge_svg__Layer_1" xmlns="http://www.w3.org/2000/svg" x="0" y="0" viewBox="0 0 106 106" style="min-width:4.25rem;min-height:4.25rem" xml:space="preserve" width="68" height="68" aria-label="badge icon"><style>.badge_svg__st3{fill:none;stroke:#4f5c78;stroke-width:1.15;stroke-linecap:round;stroke-linejoin:round}.badge_svg__st6{enable-background:new}.badge_svg__st7{fill:#4f5c78}.badge_svg__st8{fill:#ffb900}.badge_svg__st11{opacity:.3;fill:#fff;enable-background:new}</style><g id="badge_svg__Desktop"><g id="badge_svg__Profile-Page---ABN-_x28_link-hover_x29_" transform="translate(-1089 -108)"><g id="badge_svg__Top-header" transform="translate(70 96)"><g id="badge_svg__Badge" transform="translate(1019 12)"><g id="badge_svg__Background"><g id="badge_svg__New_Symbol_1-16"><circle id="badge_svg__Oval" cx="52.9" cy="53" r="52.8" style="" fill="#F5F5F6"></circle></g></g><g id="badge_svg__Scene" transform="translate(23.91 15.992)"><path id="badge_svg__Shape" d="m28.4 0 25.7 9c1.6.6 2.6 2.1 2.6 3.7v27.5c0 19.1-28.4 29.7-28.4 29.7S0 59.4 0 40.2V12.7C0 11 1.1 9.5 2.6 9l25.8-9z" style="" fill="#99A6C3"></path><path id="badge_svg__Shape_1_" d="M29 69.9S0 59.3 0 40.2V12.7C0 11 1.1 9.5 2.7 9L29 0v69.9z" style="opacity: 0.2816;" fill="#FFFFFF"></path><path id="badge_svg__Shape_2_" class="badge_svg__st3" d="m28.4 0 25.7 9c1.6.6 2.6 2.1 2.6 3.7v27.5c0 19.1-28.4 29.7-28.4 29.7S0 59.4 0 40.2V12.7C0 11 1.1 9.5 2.6 9l25.8-9z" stroke="#4F5C78" fill="none" stroke-width="1.15px"></path><ellipse id="badge_svg__Oval_1_" cx="29" cy="75.9" rx="15.8" ry="2" style="opacity: 0.2399;" fill="#99A6C3"></ellipse></g><g id="badge_svg__Group-4" transform="translate(13.352 48.984)"><path id="badge_svg__Rectangle" d="M2.6.7h73.9c1.1 0 2 .9 2 2v17.2c0 1.1-.9 2-2 2H2.6c-1.1 0-2-.9-2-2V2.6c.1-1.1.9-1.9 2-1.9z" style="" stroke="#4F5C78" fill="#FFFFFF" stroke-width="1.3143px"></path><g class="badge_svg__st6"><path class="badge_svg__st7" d="m11 14.6.9-5.9h1l-1.1 7.2h-1.7L9 8.7h1.1l.9 5.9zM15.2 11.7h1.6v1h-1.6v2.1h2v1h-3.1V8.7h3.1v1h-2v2zM20.9 15.9v-2c0-.3-.1-.6-.2-.7-.1-.1-.3-.2-.6-.2h-.4v3h-1.1V8.7h1.7c.6 0 1 .1 1.3.4.3.3.4.7.4 1.3v.6c0 .7-.2 1.2-.7 1.5.3.1.5.3.6.6s.2.6.2 1v1.6c0 .1 0 .3.1.4h-1.3zm-1.2-6.2V12h.4c.2 0 .4-.1.5-.2s.2-.3.2-.6v-.7c0-.3 0-.5-.1-.6s-.2-.2-.4-.2h-.6zM23.3 8.7h1.1v7.2h-1.1V8.7zM27.1 11.9h1.5v1h-1.5v3H26V8.7h3v1h-1.9v2.2zM30.1 8.7h1.1v7.2h-1.1V8.7zM33.9 11.7h1.6v1h-1.6v2.1h2v1h-3.1V8.7h3.1v1h-2v2z" fill="#4F5C78"></path></g><g class="badge_svg__st6"><path class="badge_svg__st7" d="M37.2 8.7H39c.6 0 1 .2 1.3.5.3.3.4.7.4 1.3v3.7c0 .6-.1 1-.4 1.3s-.7.5-1.3.5h-1.8V8.7zm1.2 1v5.2h.6c.2 0 .3-.1.4-.2s.2-.3.2-.5v-3.8c0-.3-.1-.4-.2-.5s-.2-.2-.4-.2h-.6zM44.1 8.7h3.5v1h-1.2v6.2h-1.1V9.7h-1.2v-1zM51.1 15.9v-2c0-.3-.1-.6-.2-.7-.1-.1-.3-.2-.6-.2h-.4v3h-1.1V8.7h1.7c.6 0 1 .1 1.3.4.3.3.4.7.4 1.3v.6c0 .7-.2 1.2-.7 1.5.3.1.5.3.6.6.1.3.2.6.2 1v1.6c0 .1 0 .3.1.4h-1.3zm-1.2-6.2V12h.4c.2 0 .4-.1.5-.2.1-.1.2-.3.2-.6v-.7c0-.3 0-.5-.1-.6-.1-.1-.2-.2-.4-.2h-.6zM57.3 15.9h-1.1l-.2-1.3h-1.4l-.2 1.3h-1l1.2-7.2h1.7l1 7.2zm-2.6-2.3h1.1l-.6-3.6-.5 3.6zM58.5 8.7h1.8c.6 0 1 .2 1.3.5.3.3.4.7.4 1.3v3.7c0 .6-.1 1-.4 1.3s-.7.5-1.3.5h-1.8V8.7zm1.1 1v5.2h.6c.2 0 .3-.1.4-.2s.2-.3.2-.5v-3.8c0-.3-.1-.4-.2-.5s-.2-.2-.4-.2h-.6zM63.4 8.7h1.1v7.2h-1.1V8.7zM67.1 11.7h1.6v1h-1.6v2.1h2v1H66V8.7h3.1v1h-2v2z" fill="#4F5C78"></path></g></g><g id="badge_svg__hardhat" transform="translate(29.189 26.55)"><g id="badge_svg__Scene_1_"><path id="badge_svg__Shape_3_" class="badge_svg__st8" d="M44.2 21C43.9 11.2 36 3.3 26.3 3h-4c-9.7.3-17.5 8.2-17.8 18h39.7z" fill="#FFB900"></path><path id="badge_svg__Shape_4_" d="M22.3 7.2h4c8.1.2 15.2 5.8 17.2 13.8h.7C43.9 11.2 36 3.3 26.3 3h-4c-9.7.3-17.5 8.2-17.8 18h.7c2-8 9-13.6 17.1-13.8z" style="" fill="#FFFFFF" fill-opacity="0.2"></path><path id="badge_svg__Shape_5_" class="badge_svg__st3" d="M44.2 21C43.9 11.2 36 3.3 26.3 3h-4c-9.7.3-17.5 8.2-17.8 18h39.7z" stroke="#4F5C78" fill="none" stroke-width="1.15px"></path><path id="badge_svg__Shape_6_" d="M48.4 23.1c0 .6-.2 1.1-.6 1.5-.4.4-.9.6-1.5.6H2.4c-1.2 0-2.1-.9-2.1-2.1S1.2 21 2.4 21h43.9c.6 0 1.1.2 1.5.6.4.4.6.9.6 1.5z" style="stroke-linecap: round; stroke-linejoin: round;" stroke="#4F5C78" fill="#FFB900" stroke-width="1.15px"></path><path id="badge_svg__Shape_7_" class="badge_svg__st3" d="m35.8 3-1 11.6" stroke="#4F5C78" fill="none" stroke-width="1.15px"></path><path id="badge_svg__Shape_8_" class="badge_svg__st3" d="m12.8 3 1 11.6" stroke="#4F5C78" fill="none" stroke-width="1.15px"></path><path id="badge_svg__Shape_9_" class="badge_svg__st8" d="M20.2 21h8.2c.2-.3.3-.6.3-.9L30.6 2C26.5.6 22.1.6 18 2l1.9 18.1.3.9z" fill="#FFB900"></path><path id="badge_svg__Shape_10_" class="badge_svg__st11" d="m30.2 6.1.4-4.1C26.5.6 22.1.6 18 2l.4 4.1c3.9-1.3 8-1.3 11.8 0z" fill="#FFFFFF"></path><path id="badge_svg__Shape_11_" class="badge_svg__st3" d="M20.2 21h8.2c.2-.3.3-.6.3-.9L30.6 2C26.5.6 22.1.6 18 2l1.9 18.1.3.9z" stroke="#4F5C78" fill="none" stroke-width="1.15px"></path></g></g><g id="badge_svg__Tick" transform="translate(71 19)"><circle id="badge_svg__Oval-2" cx="9" cy="9" r="9" style="" stroke="#4F5C78" fill="#FFFFFF"></circle><path id="badge_svg__Shape_12_" d="m14.7 5.7-1.1-1.1c-.2-.2-.4-.3-.6-.3-.2 0-.4.1-.6.3l-5 5L6 8.2c-.2-.1-.4-.2-.6-.2s-.5.1-.6.2L3.7 9.3c-.3.3-.3.9 0 1.2l1.4 1.4 1.7 1.7c.2.2.4.3.6.3s.4-.1.6-.3l1.7-1.7 5-5c.2-.2.3-.4.3-.6s-.1-.5-.3-.6z" style="" fill="#71A643"></path><path id="badge_svg__Shape_13_" class="badge_svg__st11" d="m14.1 5-7.9 8-2.4-2.4c-.3-.3-.3-.9 0-1.2l1.1-1.1c0-.2.3-.3.5-.3s.4.1.6.2l1.4 1.4 5-5c.3-.3.9-.3 1.2 0l.5.4z" fill="#FFFFFF"></path><path id="badge_svg__Shape_14_" d="m14.7 5.7-1.1-1.1c-.2-.2-.4-.3-.6-.3-.2 0-.4.1-.6.3l-5 5L6 8.2c-.2-.1-.4-.2-.6-.2s-.5.1-.6.2L3.7 9.3c-.3.3-.3.9 0 1.2l1.4 1.4 1.7 1.7c.2.2.4.3.6.3s.4-.1.6-.3l1.7-1.7 5-5c.2-.2.3-.4.3-.6s-.1-.5-.3-.6z" style="stroke-linecap: round; stroke-linejoin: round;" stroke="#4F5C78" fill="none" stroke-width="0.8px"></path></g></g></g></g></g></svg>