<?xml version="1.0" standalone="no"?>
<!DOCTYPE svg PUBLIC "-//W3C//DTD SVG 20010904//EN"
 "http://www.w3.org/TR/2001/REC-SVG-20010904/DTD/svg10.dtd">
<svg version="1.0" xmlns="http://www.w3.org/2000/svg"
 width="289.000000pt" height="146.000000pt" viewBox="0 0 289.000000 146.000000"
 preserveAspectRatio="xMidYMid meet">
<metadata>
Created by potrace 1.10, written by Peter Selinger 2001-2011
</metadata>
<g transform="translate(0.000000,146.000000) scale(0.100000,-0.100000)"
fill="#000000" stroke="none">
<path d="M1426 1221 c-5 -7 6 -11 31 -12 55 -2 56 -2 86 -26 33 -26 57 -80 57
-130 0 -54 -61 -305 -110 -458 -23 -72 -51 -159 -62 -195 -11 -36 -23 -74 -28
-85 -5 -11 -21 -57 -36 -103 -36 -111 -54 -132 -108 -132 -62 0 -71 16 -90
160 -49 367 -62 414 -86 318 -11 -43 -64 -238 -96 -353 -14 -49 -31 -96 -38
-103 -7 -8 -32 -16 -54 -19 -67 -9 -83 17 -103 174 -16 125 -47 318 -89 555
-12 65 -29 141 -38 169 l-18 51 -48 3 c-34 2 -45 0 -37 -8 6 -6 26 -10 44 -9
34 1 34 1 47 -61 6 -34 16 -73 20 -87 5 -14 16 -77 25 -140 9 -63 20 -128 25
-145 5 -16 17 -84 25 -150 9 -66 20 -135 25 -154 5 -19 8 -36 6 -38 -2 -2 -16
3 -31 11 -19 10 -34 12 -46 6 -26 -15 -47 26 -70 137 -11 53 -22 100 -24 103
-4 6 -35 207 -57 360 -5 36 -10 109 -12 162 -5 127 1 135 134 168 22 6 50 5
73 -1 49 -13 69 -56 98 -201 11 -57 24 -116 28 -133 5 -16 12 -57 16 -90 7
-70 33 -217 39 -223 10 -10 26 11 26 33 0 14 9 53 19 87 10 35 23 86 29 113 5
28 16 77 25 110 8 33 23 98 33 145 20 92 45 130 87 130 32 0 49 -21 58 -73 4
-23 16 -91 27 -152 22 -122 49 -290 60 -375 15 -114 43 -58 109 220 52 217 54
251 22 317 -15 31 -20 55 -16 79 6 38 -9 46 -22 12 -9 -25 -7 -34 20 -95 10
-24 19 -60 19 -80 0 -73 -85 -442 -107 -464 -7 -7 -14 30 -23 113 -7 68 -18
146 -25 173 -7 28 -16 73 -20 100 -23 187 -40 230 -90 239 -56 11 -82 -7 -99
-65 -9 -29 -16 -59 -16 -68 0 -8 -13 -69 -30 -136 -59 -240 -70 -289 -71 -314
-1 -25 -1 -25 -10 4 -4 16 -11 45 -14 65 -2 19 -11 82 -20 140 -8 58 -20 125
-26 150 -6 25 -17 74 -25 109 -32 151 -71 172 -238 131 -36 -9 -52 -19 -65
-41 -18 -33 -34 -33 -39 -1 -5 35 -49 62 -98 62 -24 0 -44 -4 -44 -10 0 -5 -6
-10 -14 -10 -15 0 -39 -33 -51 -70 -4 -14 -15 -43 -25 -65 -9 -22 -36 -96 -58
-165 -63 -191 -90 -263 -101 -269 -5 -3 -14 -32 -20 -64 -6 -31 -28 -111 -51
-176 -22 -65 -40 -127 -39 -137 0 -14 2 -15 6 -4 2 8 8 24 13 35 19 43 90 263
90 280 0 10 9 36 19 59 23 48 71 171 71 182 0 7 48 146 97 279 33 90 67 122
123 117 67 -7 73 -27 115 -352 25 -196 66 -433 88 -508 26 -86 32 -92 83 -90
52 2 63 -6 70 -54 6 -33 3 -37 -40 -64 -42 -27 -57 -44 -38 -44 14 0 72 40 72
50 0 19 19 10 22 -11 2 -12 15 -31 30 -42 22 -16 35 -18 82 -13 39 5 56 12 56
22 0 8 4 14 9 14 4 0 13 21 19 47 6 27 25 100 42 163 18 63 40 147 49 185 14
55 19 65 24 45 10 -46 27 -164 42 -295 17 -152 30 -178 90 -183 57 -5 81 5
103 40 19 32 125 339 175 508 14 47 35 117 46 155 12 39 31 120 42 180 18 94
19 118 9 163 -7 30 -21 61 -32 70 -11 10 -26 22 -33 29 -18 17 -111 28 -119
14z"/>
<path d="M1761 1161 c-11 -11 -21 -27 -21 -33 0 -7 -5 -42 -11 -78 -25 -154
-26 -255 -4 -280 29 -32 99 -54 150 -47 40 6 45 4 45 -13 0 -10 5 -22 10 -25
6 -3 10 -15 10 -26 0 -25 -15 -24 -41 2 -11 11 -23 18 -26 15 -3 -3 8 -18 25
-34 l30 -28 -4 -110 c-3 -60 -6 -128 -8 -152 -3 -40 6 -57 17 -29 3 6 11 -2
18 -20 12 -28 17 -32 61 -35 78 -5 90 8 19 20 -36 7 -68 17 -73 24 -17 27 -13
328 4 339 7 4 5 15 -6 30 -9 13 -16 36 -16 51 0 33 1 32 -36 13 -40 -20 -60
-19 -121 10 l-53 24 0 50 c0 27 5 107 11 178 15 173 24 179 180 117 89 -34
133 -42 67 -11 -158 73 -194 81 -227 48z"/>
<path d="M1440 1163 c0 -5 9 -21 20 -38 16 -24 20 -47 20 -120 0 -100 -41
-284 -119 -531 -22 -71 -45 -148 -51 -172 -6 -23 -14 -41 -18 -38 -4 2 -8 -12
-10 -32 -2 -38 -21 -59 -34 -39 -13 20 -9 57 9 87 18 31 14 91 -22 305 -9 50
-20 119 -25 155 -25 172 -64 380 -71 380 -15 0 -24 -25 -45 -130 -12 -58 -52
-224 -88 -370 -36 -146 -68 -284 -72 -307 -4 -24 -11 -43 -16 -43 -6 0 -8 -6
-5 -14 3 -7 -1 -31 -8 -52 -8 -22 -14 -33 -15 -26 0 7 -4 10 -10 7 -6 -4 -10
7 -10 27 0 18 -3 51 -7 72 -4 28 -3 37 5 32 7 -4 12 -17 12 -29 1 -20 1 -21
11 -4 11 18 7 77 -10 187 -5 30 -16 102 -25 160 -9 58 -19 111 -21 118 -2 6
-14 72 -25 145 -25 153 -45 230 -65 247 -11 9 -26 9 -62 0 -26 -6 -60 -14 -76
-17 -20 -4 -27 -11 -27 -28 0 -22 2 -23 36 -13 82 22 94 -18 199 -682 14 -91
29 -190 33 -220 7 -53 8 -55 37 -55 29 0 31 2 53 90 13 50 32 122 42 160 71
265 92 350 105 428 8 48 18 93 22 100 4 6 9 20 10 31 9 52 21 46 32 -16 14
-82 13 -92 -5 -48 -13 33 -14 28 -9 -75 2 -61 11 -142 19 -181 8 -39 18 -93
21 -121 3 -27 7 -58 9 -69 2 -11 12 -80 21 -154 10 -74 21 -139 25 -143 4 -4
18 -5 31 -2 19 5 28 19 43 67 11 34 28 78 38 99 10 21 18 42 18 47 0 4 15 55
34 113 18 57 44 136 56 174 13 39 26 86 31 105 4 19 19 80 33 135 47 183 44
264 -13 295 -23 12 -61 13 -61 3z m-707 -71 c16 -18 21 -82 5 -82 -8 0 -10 6
-12 33 -1 6 -9 21 -18 31 -10 11 -18 23 -18 28 0 14 26 8 43 -10z m42 -175 c4
-19 5 -47 2 -63 -3 -22 -4 -18 -6 14 0 24 -6 52 -11 63 -7 12 -7 19 -1 19 6 0
13 -15 16 -33z m78 -469 c2 -38 1 -68 -3 -68 -9 0 -22 119 -14 132 10 15 12 7
17 -64z m384 -75 c6 -32 7 -64 4 -71 -4 -7 -12 19 -17 58 -12 84 -3 93 13 13z"/>
<path d="M365 1113 c-21 -43 -112 -299 -156 -440 -16 -51 -34 -93 -39 -93 -6
0 -10 -12 -10 -27 0 -16 -12 -59 -26 -98 -14 -38 -32 -95 -40 -125 -8 -30 -19
-64 -24 -75 -10 -21 -50 -128 -50 -133 0 -1 16 -2 36 0 22 1 39 9 45 20 9 17
71 246 92 340 7 31 17 48 29 51 10 3 66 4 125 4 l107 -2 22 -120 c51 -287 79
-325 203 -274 36 15 51 27 51 40 0 17 -5 18 -40 13 -51 -8 -72 9 -99 80 -28
75 -97 460 -122 681 -22 195 -20 190 -55 193 -27 3 -33 -2 -49 -35z m58 -50
c4 -20 2 -43 -3 -52 -8 -13 -9 -12 -10 7 0 12 -4 22 -10 22 -14 0 -12 -69 5
-185 9 -55 20 -131 25 -169 6 -38 13 -78 16 -90 5 -20 2 -21 -111 -21 -63 0
-115 3 -115 7 0 4 6 25 14 45 12 32 87 268 128 403 24 80 51 95 61 33z m23
-183 c7 -100 0 -124 -9 -30 -3 30 -9 75 -13 100 -5 32 -3 42 4 35 6 -5 14 -53
18 -105z m27 -182 c3 -18 13 -75 22 -126 9 -52 14 -96 11 -99 -3 -4 -6 6 -6
20 0 15 -5 27 -11 27 -6 0 -9 6 -6 13 2 6 -3 18 -12 24 -12 10 -13 15 -4 21
12 8 10 62 -3 84 -9 15 -12 78 -3 72 3 -2 9 -18 12 -36z m64 -350 c-2 -7 2
-24 9 -38 7 -14 15 -38 19 -54 3 -16 19 -41 34 -57 24 -24 27 -30 15 -40 -22
-18 -53 21 -67 86 -6 30 -15 55 -19 55 -4 0 -8 14 -8 30 0 17 5 30 11 30 6 0
9 -6 6 -12z"/>
<path d="M340 803 c0 -10 -9 -42 -20 -71 -25 -64 -26 -102 -4 -102 11 0 14 5
10 17 -7 18 14 127 23 118 3 -3 8 -30 11 -60 5 -42 3 -55 -7 -55 -7 0 -13 -4
-13 -10 0 -15 16 -12 34 6 16 15 16 26 0 89 -10 38 -11 46 -13 68 0 9 -5 17
-11 17 -5 0 -10 -8 -10 -17z"/>
<path d="M1800 1118 c-1 -2 -3 -23 -5 -48 -2 -25 -7 -90 -11 -145 -5 -55 -8
-104 -9 -108 0 -10 71 -37 98 -37 15 0 17 12 17 121 0 111 2 121 18 116 41
-13 248 -100 269 -114 19 -12 23 -13 23 -2 0 34 -14 59 -31 59 -10 0 -20 4
-24 9 -3 5 -29 19 -58 29 -61 23 -153 64 -218 98 -41 21 -68 29 -69 22z m73
-106 c-8 -18 -14 -64 -14 -102 0 -47 -5 -72 -14 -80 -12 -10 -17 -7 -26 12 -8
18 -7 50 1 119 6 52 12 99 12 105 1 7 11 6 28 -4 26 -15 27 -17 13 -50z"/>
<path d="M2040 1075 c7 -8 19 -15 26 -15 8 0 22 -4 32 -9 17 -9 111 -53 124
-59 5 -2 8 0 8 5 0 4 -20 16 -45 26 -25 11 -45 23 -45 27 0 5 -18 11 -40 15
-22 4 -42 11 -46 16 -3 5 -10 9 -16 9 -7 0 -6 -6 2 -15z"/>
<path d="M2237 938 c2 -24 6 -49 9 -55 6 -22 22 -14 29 14 4 19 2 29 -9 35 -9
5 -16 15 -16 23 0 8 -4 16 -9 19 -5 4 -7 -12 -4 -36z"/>
<path d="M1984 899 c3 -17 6 -68 6 -113 l0 -81 83 -19 c45 -10 106 -26 134
-36 57 -20 68 -15 54 22 -5 13 -12 54 -16 91 -4 39 -12 67 -19 67 -6 0 -23 6
-37 14 -15 7 -51 22 -80 31 -30 10 -67 26 -84 37 -42 25 -48 23 -41 -13z m80
-38 c3 -5 25 -13 48 -20 66 -16 97 -47 104 -103 l7 -48 -31 0 c-17 0 -33 4
-37 9 -3 5 -29 13 -59 16 -44 6 -56 12 -65 31 -12 27 -15 107 -4 117 9 10 31
9 37 -2z"/>
<path d="M2394 922 c4 -6 21 -15 39 -21 18 -5 41 -12 52 -16 11 -4 5 2 -12 14
-39 25 -89 39 -79 23z"/>
<path d="M2320 882 c0 -18 28 -52 43 -52 7 0 125 -52 157 -69 8 -4 20 -30 28
-57 7 -27 19 -69 26 -93 12 -43 38 -72 52 -58 11 10 -60 229 -77 239 -8 4 -59
29 -114 55 -55 26 -103 49 -107 51 -5 2 -8 -5 -8 -16z"/>
<path d="M2540 862 c0 -5 11 -14 25 -20 25 -12 65 -78 65 -108 0 -10 12 -51
26 -93 21 -61 24 -79 14 -94 -12 -21 -8 -33 9 -22 23 14 13 79 -37 225 -22 67
-34 88 -58 102 -32 20 -44 22 -44 10z"/>
<path d="M2315 768 c4 -13 12 -52 18 -87 9 -49 17 -66 32 -71 79 -28 165 -53
169 -49 3 3 -6 32 -19 65 -14 32 -25 68 -25 80 0 16 -14 25 -65 43 -36 13 -68
27 -71 32 -3 5 -14 9 -26 9 -17 0 -19 -4 -13 -22z m141 -89 c7 -13 13 -32 14
-43 0 -16 -5 -17 -32 -12 -55 11 -79 45 -62 89 5 13 10 13 36 2 17 -7 37 -23
44 -36z"/>
<path d="M1718 681 c-21 -17 -26 -32 -32 -93 -4 -40 -11 -91 -16 -113 -5 -22
-14 -103 -20 -180 -6 -77 -13 -157 -16 -177 -3 -30 1 -41 22 -62 35 -32 61
-34 359 -36 296 -1 319 4 330 69 3 21 2 65 -4 97 -6 31 -9 59 -7 61 2 2 15 -1
28 -8 23 -10 26 -19 32 -85 7 -87 25 -121 69 -129 18 -3 101 -5 186 -3 l154 3
19 37 c19 36 19 40 3 95 -39 135 -98 314 -106 319 -12 7 -11 -22 0 -44 8 -15
21 -57 85 -273 19 -66 10 -104 -26 -118 -13 -4 -90 -7 -171 -6 -184 2 -188 4
-191 116 l-1 74 -38 22 c-30 18 -43 20 -58 13 -23 -13 -23 -19 -4 -44 10 -13
15 -43 15 -83 0 -97 10 -94 -344 -91 -288 3 -296 4 -317 25 l-22 21 27 264
c15 144 30 273 32 284 8 34 45 48 106 40 64 -8 44 8 -23 18 -37 5 -50 3 -71
-13z"/>
<path d="M1741 498 c-7 -79 -17 -179 -22 -223 -6 -44 -13 -104 -16 -132 l-6
-53 298 0 297 0 -7 53 c-4 28 -9 53 -10 55 -2 2 -91 8 -199 14 -107 7 -200 14
-206 18 -7 4 -8 64 -1 191 5 101 8 186 6 188 -2 2 -21 7 -42 11 -21 5 -47 11
-59 15 -20 6 -21 1 -33 -137z m91 68 c4 -6 5 -83 2 -171 l-6 -160 25 -23 c22
-21 39 -24 183 -33 183 -11 204 -14 204 -33 0 -8 -10 -16 -22 -20 -31 -8 -373
-8 -433 1 l-47 6 6 56 c8 66 37 346 39 378 2 18 6 21 22 17 11 -4 23 -12 27
-18z"/>
<path d="M1992 478 l3 -143 40 -3 c22 -1 84 -9 138 -17 134 -21 141 -20 133 8
-3 12 -11 68 -17 124 -10 90 -14 103 -33 109 -11 4 -22 6 -23 6 -2 -1 -24 5
-50 13 -27 7 -61 16 -78 19 -16 2 -46 9 -65 15 -19 6 -38 11 -43 11 -4 0 -6
-64 -5 -142z m162 60 c11 -6 22 -11 23 -10 2 1 16 -1 32 -4 19 -4 31 -14 35
-28 11 -47 18 -144 10 -148 -17 -9 -207 21 -215 34 -14 22 -11 176 4 181 15 5
83 -10 111 -25z"/>
<path d="M2360 533 c0 -5 7 -46 15 -93 8 -47 15 -100 15 -117 0 -18 3 -34 8
-35 4 0 18 -2 32 -3 14 -1 60 -8 103 -15 43 -6 80 -10 82 -8 2 2 -7 37 -20 78
-12 41 -27 93 -31 114 l-9 39 -70 14 c-38 7 -78 18 -87 23 -21 12 -38 13 -38
3z m140 -66 c17 -9 31 -31 47 -77 12 -36 23 -69 23 -73 0 -4 -31 -7 -69 -6
l-69 2 -12 46 c-6 25 -14 66 -17 90 l-5 44 39 -8 c21 -3 49 -12 63 -18z"/>
<path d="M2615 510 c-18 -7 -17 -8 10 -15 17 -3 40 -10 53 -15 33 -14 29 12
-5 28 -30 14 -31 14 -58 2z"/>
<path d="M258 478 c-15 -12 -49 -114 -63 -188 -12 -64 -48 -155 -72 -181 -27
-29 -68 -40 -103 -27 -15 6 -20 4 -18 -5 5 -14 59 -21 94 -13 32 8 73 51 80
84 3 15 14 56 24 92 19 64 49 181 54 210 2 11 20 16 73 18 l71 3 6 -38 c16
-92 50 -221 67 -260 10 -24 19 -45 19 -47 0 -12 48 -54 70 -61 31 -10 102 -7
115 6 5 5 -16 9 -54 9 -59 0 -66 2 -95 33 -36 38 -67 127 -91 262 -10 50 -22
96 -27 103 -14 16 -129 16 -150 0z"/>
<path d="M2620 433 c0 -4 5 -26 12 -48 6 -22 12 -42 13 -45 30 -113 44 -151
61 -165 15 -14 24 -40 16 -51 -9 -12 -217 -2 -217 11 0 6 35 11 80 13 44 2 84
7 88 11 9 9 -85 28 -152 30 -25 1 -48 4 -52 6 -11 8 -17 -18 -8 -40 4 -11 8
-31 8 -45 l1 -25 150 0 c93 0 150 4 150 10 0 6 -15 60 -34 120 -19 61 -41 135
-49 165 -12 48 -17 55 -40 58 -15 2 -27 0 -27 -5z"/>
</g>
</svg>
